<svg width="59" height="60" viewBox="0 0 59 60" fill="none" xmlns="http://www.w3.org/2000/svg">
<rect x="1" y="1.5" width="57" height="57" rx="28.5" fill="white"/>
<rect x="1" y="1.5" width="57" height="57" rx="28.5" stroke="#1E1E1E" stroke-width="2"/>
<path d="M38.0312 13.5H19.9688C15.5677 13.5 12 17.0677 12 21.4688V39.5312C12 43.9323 15.5677 47.5 19.9688 47.5H38.0312C42.4323 47.5 46 43.9323 46 39.5312V21.4688C46 17.0677 42.4323 13.5 38.0312 13.5Z" fill="url(#paint0_radial_6_200)"/>
<path d="M38.0312 13.5H19.9688C15.5677 13.5 12 17.0677 12 21.4688V39.5312C12 43.9323 15.5677 47.5 19.9688 47.5H38.0312C42.4323 47.5 46 43.9323 46 39.5312V21.4688C46 17.0677 42.4323 13.5 38.0312 13.5Z" fill="url(#paint1_radial_6_200)"/>
<path d="M29.0012 17.2188C25.3943 17.2188 24.9415 17.2346 23.5249 17.299C22.111 17.3638 21.1459 17.5876 20.3014 17.916C19.4278 18.2552 18.6868 18.709 17.9487 19.4475C17.2098 20.1858 16.756 20.9267 16.4158 21.8C16.0864 22.6447 15.8623 23.6102 15.7987 25.0235C15.7354 26.4402 15.7188 26.8931 15.7188 30.5001C15.7188 34.1072 15.7347 34.5585 15.799 35.9751C15.864 37.389 16.0878 38.3541 16.416 39.1986C16.7555 40.0722 17.2093 40.8132 17.9477 41.5513C18.6858 42.2902 19.4267 42.745 20.2997 43.0842C21.1448 43.4127 22.1101 43.6365 23.5237 43.7013C24.9405 43.7657 25.3928 43.7815 28.9996 43.7815C32.6069 43.7815 33.0582 43.7657 34.4748 43.7013C35.8887 43.6365 36.8549 43.4127 37.7 43.0842C38.5733 42.745 39.3132 42.2902 40.0511 41.5513C40.7899 40.8132 41.2436 40.0722 41.584 39.199C41.9104 38.3541 42.1346 37.3887 42.201 35.9753C42.2646 34.5588 42.2812 34.1072 42.2812 30.5001C42.2812 26.8931 42.2646 26.4405 42.201 25.0237C42.1346 23.6098 41.9104 22.6448 41.584 21.8004C41.2436 20.9267 40.7899 20.1858 40.0511 19.4475C39.3124 18.7088 38.5735 18.255 37.6992 17.9161C36.8525 17.5876 35.8869 17.3636 34.4729 17.299C33.0562 17.2346 32.6052 17.2188 28.9971 17.2188H29.0012ZM27.8097 19.6122C28.1634 19.6116 28.558 19.6122 29.0012 19.6122C32.5474 19.6122 32.9676 19.6249 34.368 19.6885C35.6629 19.7478 36.3658 19.9641 36.8339 20.1459C37.4538 20.3866 37.8956 20.6744 38.3602 21.1394C38.8251 21.6042 39.1127 22.0469 39.3541 22.6667C39.5359 23.1342 39.7525 23.8371 39.8115 25.132C39.8751 26.5321 39.8889 26.9526 39.8889 30.4971C39.8889 34.0416 39.8751 34.4622 39.8115 35.8622C39.7522 37.1571 39.5359 37.8599 39.3541 38.3276C39.1134 38.9474 38.8251 39.3887 38.3602 39.8533C37.8954 40.3182 37.454 40.6058 36.8339 40.8466C36.3663 41.0292 35.6629 41.2451 34.368 41.3043C32.9679 41.3679 32.5474 41.3817 29.0012 41.3817C25.4548 41.3817 25.0345 41.3679 23.6345 41.3043C22.3396 41.2445 21.6367 41.0282 21.1682 40.8464C20.5485 40.6056 20.1057 40.3179 19.6408 39.8531C19.176 39.3882 18.8883 38.9466 18.647 38.3265C18.4652 37.8589 18.2486 37.156 18.1896 35.8611C18.126 34.461 18.1132 34.0405 18.1132 30.4938C18.1132 26.947 18.126 26.5288 18.1896 25.1287C18.2488 23.8337 18.4652 23.1309 18.647 22.6627C18.8878 22.0429 19.176 21.6002 19.641 21.1354C20.1059 20.6705 20.5485 20.3827 21.1683 20.1416C21.6365 19.9589 22.3396 19.7431 23.6345 19.6836C24.8597 19.6282 25.3345 19.6116 27.8097 19.6088V19.6122ZM36.0907 21.8174C35.2108 21.8174 34.497 22.5306 34.497 23.4106C34.497 24.2905 35.2108 25.0044 36.0907 25.0044C36.9706 25.0044 37.6845 24.2905 37.6845 23.4106C37.6845 22.5307 36.9706 21.8169 36.0907 21.8169V21.8174ZM29.0012 23.6795C25.2346 23.6795 22.1807 26.7334 22.1807 30.5001C22.1807 34.2668 25.2346 37.3193 29.0012 37.3193C32.7679 37.3193 35.8207 34.2668 35.8207 30.5001C35.8207 26.7336 32.7676 23.6795 29.0009 23.6795H29.0012ZM29.0012 26.073C31.4461 26.073 33.4284 28.0549 33.4284 30.5001C33.4284 32.9451 31.4461 34.9273 29.0012 34.9273C26.5563 34.9273 24.5742 32.9451 24.5742 30.5001C24.5742 28.0549 26.5561 26.073 29.0012 26.073Z" fill="white"/>
<defs>
<radialGradient id="paint0_radial_6_200" cx="0" cy="0" r="1" gradientUnits="userSpaceOnUse" gradientTransform="translate(21.0312 50.1187) rotate(-90) scale(33.6965 31.3404)">
<stop stop-color="#FFDD55"/>
<stop offset="0.1" stop-color="#FFDD55"/>
<stop offset="0.5" stop-color="#FF543E"/>
<stop offset="1" stop-color="#C837AB"/>
</radialGradient>
<radialGradient id="paint1_radial_6_200" cx="0" cy="0" r="1" gradientUnits="userSpaceOnUse" gradientTransform="translate(6.30487 15.9492) rotate(78.681) scale(15.0625 62.0882)">
<stop stop-color="#3771C8"/>
<stop offset="0.128" stop-color="#3771C8"/>
<stop offset="1" stop-color="#6600FF" stop-opacity="0"/>
</radialGradient>
</defs>
</svg>
