<svg width="59" height="60" viewBox="0 0 59 60" fill="none" xmlns="http://www.w3.org/2000/svg">
<rect x="1" y="1.5" width="57" height="57" rx="28.5" fill="white"/>
<rect x="1" y="1.5" width="57" height="57" rx="28.5" stroke="#1E1E1E" stroke-width="2"/>
<path d="M36.0208 35.0291L35.1866 35.8818C35.1866 35.8818 33.2011 37.9072 27.7836 32.3768C22.3662 26.8464 24.3517 24.821 24.3517 24.821L24.876 24.2826C26.1721 22.9612 26.295 20.8379 25.1638 19.2868L22.8538 16.1188C21.4532 14.1988 18.749 13.9447 17.1449 15.5823L14.2666 18.5188C13.4727 19.332 12.9411 20.3824 13.0052 21.5494C13.1702 24.5367 14.4866 30.9613 21.8272 38.4569C29.6133 46.4042 36.9191 46.7205 39.9056 46.4343C40.8515 46.344 41.6729 45.8508 42.3347 45.1731L44.938 42.5152C46.698 40.7213 46.203 37.6437 43.9517 36.3881L40.4501 34.4324C38.9724 33.6098 37.1757 33.8507 36.0208 35.0291Z" fill="#F50B12"/>
</svg>
